<svg id="svg" version="1.1" xmlns="http://www.w3.org/2000/svg" xmlns:xlink="http://www.w3.org/1999/xlink" width="400" height="400" viewBox="0, 0, 400,400"><g id="svgg"><path id="path0" d="M15.000 0.877 C 13.484 1.675,8.731 5.123,7.000 6.680 C 5.779 7.779,3.106 11.143,1.469 13.641 L 0.000 15.883 -0.000 188.370 L -0.000 360.858 1.076 362.729 C 2.268 364.801,5.531 369.355,6.716 370.600 C 7.135 371.040,8.476 372.672,9.697 374.226 C 12.388 377.654,16.822 381.787,19.000 382.899 C 19.880 383.349,21.465 384.545,22.523 385.558 C 24.411 387.367,25.000 387.773,27.400 388.922 C 29.954 390.146,32.459 391.623,33.289 392.397 C 33.767 392.842,36.011 394.120,38.276 395.238 C 40.542 396.355,42.486 397.416,42.597 397.595 C 42.707 397.773,43.743 398.138,44.899 398.405 C 46.054 398.672,47.399 399.140,47.886 399.445 C 48.638 399.916,75.308 400.000,224.386 400.000 L 400.000 400.000 400.000 226.374 L 400.000 52.748 390.241 52.874 C 379.383 53.014,379.791 52.912,377.887 55.974 L 377.000 57.400 376.897 215.303 L 376.794 373.205 224.297 373.103 L 71.800 373.000 70.215 372.100 C 69.300 371.580,67.949 371.198,67.015 371.196 C 66.115 371.194,64.515 370.757,63.400 370.209 C 62.300 369.668,61.193 369.219,60.940 369.213 C 60.339 369.196,57.031 367.653,55.000 366.442 C 43.606 359.648,38.626 355.487,35.077 349.800 C 34.391 348.700,33.707 347.710,33.556 347.600 C 33.406 347.490,33.073 346.590,32.817 345.600 C 32.561 344.610,32.047 342.990,31.676 342.000 C 30.750 339.535,30.771 332.946,31.713 330.200 C 32.090 329.100,32.586 327.435,32.815 326.500 C 33.044 325.565,33.390 324.800,33.584 324.800 C 33.778 324.800,34.062 324.230,34.214 323.534 C 34.367 322.838,34.922 321.461,35.446 320.475 C 35.971 319.488,36.400 318.411,36.400 318.082 C 36.400 316.114,43.067 309.246,48.219 305.908 C 49.330 305.189,51.040 303.944,52.019 303.142 C 52.999 302.340,54.430 301.398,55.200 301.050 C 55.970 300.701,56.870 300.251,57.200 300.048 C 57.530 299.846,58.762 299.213,59.937 298.640 L 62.074 297.600 200.137 297.597 C 276.072 297.596,339.413 297.480,340.895 297.340 C 344.055 297.041,346.375 295.421,347.646 292.622 C 348.357 291.056,348.383 285.982,348.391 145.500 L 348.400 0.000 182.500 0.018 L 16.600 0.035 15.000 0.877 M140.292 103.260 C 141.443 103.696,142.489 104.220,142.616 104.426 C 142.743 104.632,143.129 104.800,143.472 104.800 C 143.816 104.800,145.920 105.691,148.149 106.779 C 150.377 107.868,152.740 108.882,153.400 109.033 C 154.060 109.184,154.870 109.537,155.200 109.817 C 155.530 110.096,156.544 110.524,157.453 110.766 C 158.363 111.008,159.320 111.463,159.581 111.777 C 159.842 112.091,160.628 112.471,161.328 112.620 C 162.649 112.901,165.527 114.117,172.400 117.296 C 173.610 117.856,175.680 118.795,177.000 119.383 C 178.320 119.970,180.030 120.777,180.800 121.175 C 181.570 121.574,182.830 122.035,183.600 122.200 C 184.370 122.365,185.478 122.837,186.062 123.250 C 186.646 123.662,187.366 124.002,187.662 124.004 C 187.958 124.006,189.100 124.450,190.200 124.991 C 191.300 125.532,192.433 125.981,192.718 125.987 C 193.003 125.994,194.082 126.450,195.115 127.000 C 196.148 127.550,197.229 128.000,197.518 128.000 C 197.806 128.000,198.707 128.346,199.521 128.769 C 202.837 130.494,205.181 131.532,206.330 131.785 C 206.998 131.931,207.750 132.298,208.000 132.600 C 208.250 132.902,209.028 133.272,209.728 133.423 C 210.427 133.575,211.809 134.126,212.797 134.649 C 213.785 135.172,214.757 135.600,214.957 135.600 C 215.343 135.600,218.864 137.165,221.200 138.375 C 221.970 138.773,223.173 139.224,223.872 139.376 C 224.572 139.527,225.350 139.898,225.600 140.200 C 225.850 140.502,226.628 140.870,227.328 141.018 C 228.027 141.166,229.230 141.610,230.000 142.005 C 232.794 143.439,236.760 145.200,237.196 145.200 C 237.627 145.200,238.202 145.465,242.700 147.739 C 243.855 148.322,244.992 148.800,245.225 148.800 C 245.816 148.800,250.761 151.174,252.117 152.108 C 253.345 152.955,253.105 153.736,251.464 154.228 C 250.595 154.488,238.720 160.146,237.600 160.834 C 237.270 161.036,236.550 161.389,236.000 161.617 C 234.734 162.143,230.792 164.019,230.000 164.473 C 229.670 164.662,228.770 165.087,228.000 165.418 C 227.230 165.749,226.330 166.199,226.000 166.418 C 225.670 166.637,224.770 167.093,224.000 167.432 C 223.230 167.771,221.160 168.732,219.400 169.568 C 212.666 172.765,210.842 173.600,210.587 173.600 C 210.442 173.600,209.846 173.934,209.262 174.342 C 208.678 174.750,207.674 175.211,207.032 175.366 C 206.389 175.522,205.420 175.998,204.878 176.425 C 204.336 176.851,203.626 177.200,203.301 177.200 C 202.975 177.200,202.054 177.544,201.254 177.965 C 198.892 179.206,194.347 181.199,193.855 181.209 C 193.605 181.214,192.950 181.570,192.400 182.000 C 191.850 182.430,191.133 182.786,190.806 182.791 C 190.479 182.796,189.219 183.269,188.006 183.842 C 182.514 186.435,181.703 186.800,181.435 186.800 C 181.279 186.800,180.127 187.260,178.875 187.821 C 177.624 188.383,175.880 189.166,175.000 189.561 C 174.120 189.955,172.410 190.748,171.200 191.322 C 169.990 191.896,168.550 192.485,168.000 192.630 C 167.450 192.776,166.730 193.122,166.400 193.400 C 166.070 193.678,165.350 194.025,164.800 194.171 C 164.250 194.318,162.720 194.911,161.400 195.489 C 155.678 197.997,154.520 198.523,153.146 199.241 C 152.346 199.658,151.464 200.000,151.186 200.000 C 150.907 200.000,149.762 200.434,148.640 200.965 C 145.864 202.279,141.764 204.000,141.412 204.000 C 141.253 204.000,140.646 204.334,140.062 204.742 C 139.478 205.150,138.505 205.603,137.900 205.749 L 136.800 206.015 136.800 153.965 C 136.800 104.554,136.835 101.928,137.500 102.192 C 137.885 102.344,139.142 102.825,140.292 103.260 M74.709 323.629 C 68.628 324.617,63.984 333.783,66.559 339.713 C 67.504 341.889,73.255 347.200,74.666 347.200 C 74.946 347.200,75.868 347.561,76.714 348.002 C 78.245 348.800,78.832 348.803,215.689 348.702 L 353.126 348.600 354.663 347.365 C 356.688 345.737,357.754 343.513,357.410 341.631 C 357.267 340.844,357.026 337.042,356.875 333.182 C 356.573 325.463,356.187 324.164,354.082 323.770 C 352.571 323.487,76.439 323.348,74.709 323.629 " stroke="none" fill="#558d8c" fill-rule="evenodd"></path><path id="path1" d="M15.000 0.877 C 13.484 1.675,8.731 5.123,7.000 6.680 C 5.779 7.779,3.106 11.143,1.469 13.641 L 0.000 15.883 -0.000 188.370 L -0.000 360.858 1.076 362.729 C 2.268 364.801,5.531 369.355,6.716 370.600 C 7.135 371.040,8.476 372.672,9.697 374.226 C 12.388 377.654,16.822 381.787,19.000 382.899 C 19.880 383.349,21.465 384.545,22.523 385.558 C 24.411 387.367,25.000 387.773,27.400 388.922 C 29.954 390.146,32.459 391.623,33.289 392.397 C 33.767 392.842,36.011 394.120,38.276 395.238 C 40.542 396.355,42.486 397.416,42.597 397.595 C 42.707 397.773,43.743 398.138,44.899 398.405 C 46.054 398.672,47.399 399.140,47.886 399.445 C 48.638 399.916,75.308 400.000,224.386 400.000 L 400.000 400.000 400.000 226.374 L 400.000 52.748 390.241 52.874 C 379.383 53.014,379.791 52.912,377.887 55.974 L 377.000 57.400 376.897 215.303 L 376.794 373.205 224.297 373.103 L 71.800 373.000 70.215 372.100 C 69.300 371.580,67.949 371.198,67.015 371.196 C 66.115 371.194,64.515 370.757,63.400 370.209 C 62.300 369.668,61.193 369.219,60.940 369.213 C 60.339 369.196,57.031 367.653,55.000 366.442 C 43.606 359.648,38.626 355.487,35.077 349.800 C 34.391 348.700,33.707 347.710,33.556 347.600 C 33.406 347.490,33.073 346.590,32.817 345.600 C 32.561 344.610,32.047 342.990,31.676 342.000 C 30.750 339.535,30.771 332.946,31.713 330.200 C 32.090 329.100,32.586 327.435,32.815 326.500 C 33.044 325.565,33.390 324.800,33.584 324.800 C 33.778 324.800,34.062 324.230,34.214 323.534 C 34.367 322.838,34.922 321.461,35.446 320.475 C 35.971 319.488,36.400 318.411,36.400 318.082 C 36.400 316.114,43.067 309.246,48.219 305.908 C 49.330 305.189,51.040 303.944,52.019 303.142 C 52.999 302.340,54.430 301.398,55.200 301.050 C 55.970 300.701,56.870 300.251,57.200 300.048 C 57.530 299.846,58.762 299.213,59.937 298.640 L 62.074 297.600 200.137 297.597 C 276.072 297.596,339.413 297.480,340.895 297.340 C 344.055 297.041,346.375 295.421,347.646 292.622 C 348.357 291.056,348.383 285.982,348.391 145.500 L 348.400 0.000 182.500 0.018 L 16.600 0.035 15.000 0.877 M140.292 103.260 C 141.443 103.696,142.489 104.220,142.616 104.426 C 142.743 104.632,143.129 104.800,143.472 104.800 C 143.816 104.800,145.920 105.691,148.149 106.779 C 150.377 107.868,152.740 108.882,153.400 109.033 C 154.060 109.184,154.870 109.537,155.200 109.817 C 155.530 110.096,156.544 110.524,157.453 110.766 C 158.363 111.008,159.320 111.463,159.581 111.777 C 159.842 112.091,160.628 112.471,161.328 112.620 C 162.649 112.901,165.527 114.117,172.400 117.296 C 173.610 117.856,175.680 118.795,177.000 119.383 C 178.320 119.970,180.030 120.777,180.800 121.175 C 181.570 121.574,182.830 122.035,183.600 122.200 C 184.370 122.365,185.478 122.837,186.062 123.250 C 186.646 123.662,187.366 124.002,187.662 124.004 C 187.958 124.006,189.100 124.450,190.200 124.991 C 191.300 125.532,192.433 125.981,192.718 125.987 C 193.003 125.994,194.082 126.450,195.115 127.000 C 196.148 127.550,197.229 128.000,197.518 128.000 C 197.806 128.000,198.707 128.346,199.521 128.769 C 202.837 130.494,205.181 131.532,206.330 131.785 C 206.998 131.931,207.750 132.298,208.000 132.600 C 208.250 132.902,209.028 133.272,209.728 133.423 C 210.427 133.575,211.809 134.126,212.797 134.649 C 213.785 135.172,214.757 135.600,214.957 135.600 C 215.343 135.600,218.864 137.165,221.200 138.375 C 221.970 138.773,223.173 139.224,223.872 139.376 C 224.572 139.527,225.350 139.898,225.600 140.200 C 225.850 140.502,226.628 140.870,227.328 141.018 C 228.027 141.166,229.230 141.610,230.000 142.005 C 232.794 143.439,236.760 145.200,237.196 145.200 C 237.627 145.200,238.202 145.465,242.700 147.739 C 243.855 148.322,244.992 148.800,245.225 148.800 C 245.816 148.800,250.761 151.174,252.117 152.108 C 253.345 152.955,253.105 153.736,251.464 154.228 C 250.595 154.488,238.720 160.146,237.600 160.834 C 237.270 161.036,236.550 161.389,236.000 161.617 C 234.734 162.143,230.792 164.019,230.000 164.473 C 229.670 164.662,228.770 165.087,228.000 165.418 C 227.230 165.749,226.330 166.199,226.000 166.418 C 225.670 166.637,224.770 167.093,224.000 167.432 C 223.230 167.771,221.160 168.732,219.400 169.568 C 212.666 172.765,210.842 173.600,210.587 173.600 C 210.442 173.600,209.846 173.934,209.262 174.342 C 208.678 174.750,207.674 175.211,207.032 175.366 C 206.389 175.522,205.420 175.998,204.878 176.425 C 204.336 176.851,203.626 177.200,203.301 177.200 C 202.975 177.200,202.054 177.544,201.254 177.965 C 198.892 179.206,194.347 181.199,193.855 181.209 C 193.605 181.214,192.950 181.570,192.400 182.000 C 191.850 182.430,191.133 182.786,190.806 182.791 C 190.479 182.796,189.219 183.269,188.006 183.842 C 182.514 186.435,181.703 186.800,181.435 186.800 C 181.279 186.800,180.127 187.260,178.875 187.821 C 177.624 188.383,175.880 189.166,175.000 189.561 C 174.120 189.955,172.410 190.748,171.200 191.322 C 169.990 191.896,168.550 192.485,168.000 192.630 C 167.450 192.776,166.730 193.122,166.400 193.400 C 166.070 193.678,165.350 194.025,164.800 194.171 C 164.250 194.318,162.720 194.911,161.400 195.489 C 155.678 197.997,154.520 198.523,153.146 199.241 C 152.346 199.658,151.464 200.000,151.186 200.000 C 150.907 200.000,149.762 200.434,148.640 200.965 C 145.864 202.279,141.764 204.000,141.412 204.000 C 141.253 204.000,140.646 204.334,140.062 204.742 C 139.478 205.150,138.505 205.603,137.900 205.749 L 136.800 206.015 136.800 153.965 C 136.800 104.554,136.835 101.928,137.500 102.192 C 137.885 102.344,139.142 102.825,140.292 103.260 M74.709 323.629 C 68.628 324.617,63.984 333.783,66.559 339.713 C 67.504 341.889,73.255 347.200,74.666 347.200 C 74.946 347.200,75.868 347.561,76.714 348.002 C 78.245 348.800,78.832 348.803,215.689 348.702 L 353.126 348.600 354.663 347.365 C 356.688 345.737,357.754 343.513,357.410 341.631 C 357.267 340.844,357.026 337.042,356.875 333.182 C 356.573 325.463,356.187 324.164,354.082 323.770 C 352.571 323.487,76.439 323.348,74.709 323.629 " stroke="none" fill="#558d8c" fill-rule="evenodd"></path><path id="path2" d="M15.000 0.877 C 13.484 1.675,8.731 5.123,7.000 6.680 C 5.779 7.779,3.106 11.143,1.469 13.641 L 0.000 15.883 -0.000 188.370 L -0.000 360.858 1.076 362.729 C 2.268 364.801,5.531 369.355,6.716 370.600 C 7.135 371.040,8.476 372.672,9.697 374.226 C 12.388 377.654,16.822 381.787,19.000 382.899 C 19.880 383.349,21.465 384.545,22.523 385.558 C 24.411 387.367,25.000 387.773,27.400 388.922 C 29.954 390.146,32.459 391.623,33.289 392.397 C 33.767 392.842,36.011 394.120,38.276 395.238 C 40.542 396.355,42.486 397.416,42.597 397.595 C 42.707 397.773,43.743 398.138,44.899 398.405 C 46.054 398.672,47.399 399.140,47.886 399.445 C 48.638 399.916,75.308 400.000,224.386 400.000 L 400.000 400.000 400.000 226.374 L 400.000 52.748 390.241 52.874 C 379.383 53.014,379.791 52.912,377.887 55.974 L 377.000 57.400 376.897 215.303 L 376.794 373.205 224.297 373.103 L 71.800 373.000 70.215 372.100 C 69.300 371.580,67.949 371.198,67.015 371.196 C 66.115 371.194,64.515 370.757,63.400 370.209 C 62.300 369.668,61.193 369.219,60.940 369.213 C 60.339 369.196,57.031 367.653,55.000 366.442 C 43.606 359.648,38.626 355.487,35.077 349.800 C 34.391 348.700,33.707 347.710,33.556 347.600 C 33.406 347.490,33.073 346.590,32.817 345.600 C 32.561 344.610,32.047 342.990,31.676 342.000 C 30.750 339.535,30.771 332.946,31.713 330.200 C 32.090 329.100,32.586 327.435,32.815 326.500 C 33.044 325.565,33.390 324.800,33.584 324.800 C 33.778 324.800,34.062 324.230,34.214 323.534 C 34.367 322.838,34.922 321.461,35.446 320.475 C 35.971 319.488,36.400 318.411,36.400 318.082 C 36.400 316.114,43.067 309.246,48.219 305.908 C 49.330 305.189,51.040 303.944,52.019 303.142 C 52.999 302.340,54.430 301.398,55.200 301.050 C 55.970 300.701,56.870 300.251,57.200 300.048 C 57.530 299.846,58.762 299.213,59.937 298.640 L 62.074 297.600 200.137 297.597 C 276.072 297.596,339.413 297.480,340.895 297.340 C 344.055 297.041,346.375 295.421,347.646 292.622 C 348.357 291.056,348.383 285.982,348.391 145.500 L 348.400 0.000 182.500 0.018 L 16.600 0.035 15.000 0.877 M140.292 103.260 C 141.443 103.696,142.489 104.220,142.616 104.426 C 142.743 104.632,143.129 104.800,143.472 104.800 C 143.816 104.800,145.920 105.691,148.149 106.779 C 150.377 107.868,152.740 108.882,153.400 109.033 C 154.060 109.184,154.870 109.537,155.200 109.817 C 155.530 110.096,156.544 110.524,157.453 110.766 C 158.363 111.008,159.320 111.463,159.581 111.777 C 159.842 112.091,160.628 112.471,161.328 112.620 C 162.649 112.901,165.527 114.117,172.400 117.296 C 173.610 117.856,175.680 118.795,177.000 119.383 C 178.320 119.970,180.030 120.777,180.800 121.175 C 181.570 121.574,182.830 122.035,183.600 122.200 C 184.370 122.365,185.478 122.837,186.062 123.250 C 186.646 123.662,187.366 124.002,187.662 124.004 C 187.958 124.006,189.100 124.450,190.200 124.991 C 191.300 125.532,192.433 125.981,192.718 125.987 C 193.003 125.994,194.082 126.450,195.115 127.000 C 196.148 127.550,197.229 128.000,197.518 128.000 C 197.806 128.000,198.707 128.346,199.521 128.769 C 202.837 130.494,205.181 131.532,206.330 131.785 C 206.998 131.931,207.750 132.298,208.000 132.600 C 208.250 132.902,209.028 133.272,209.728 133.423 C 210.427 133.575,211.809 134.126,212.797 134.649 C 213.785 135.172,214.757 135.600,214.957 135.600 C 215.343 135.600,218.864 137.165,221.200 138.375 C 221.970 138.773,223.173 139.224,223.872 139.376 C 224.572 139.527,225.350 139.898,225.600 140.200 C 225.850 140.502,226.628 140.870,227.328 141.018 C 228.027 141.166,229.230 141.610,230.000 142.005 C 232.794 143.439,236.760 145.200,237.196 145.200 C 237.627 145.200,238.202 145.465,242.700 147.739 C 243.855 148.322,244.992 148.800,245.225 148.800 C 245.816 148.800,250.761 151.174,252.117 152.108 C 253.345 152.955,253.105 153.736,251.464 154.228 C 250.595 154.488,238.720 160.146,237.600 160.834 C 237.270 161.036,236.550 161.389,236.000 161.617 C 234.734 162.143,230.792 164.019,230.000 164.473 C 229.670 164.662,228.770 165.087,228.000 165.418 C 227.230 165.749,226.330 166.199,226.000 166.418 C 225.670 166.637,224.770 167.093,224.000 167.432 C 223.230 167.771,221.160 168.732,219.400 169.568 C 212.666 172.765,210.842 173.600,210.587 173.600 C 210.442 173.600,209.846 173.934,209.262 174.342 C 208.678 174.750,207.674 175.211,207.032 175.366 C 206.389 175.522,205.420 175.998,204.878 176.425 C 204.336 176.851,203.626 177.200,203.301 177.200 C 202.975 177.200,202.054 177.544,201.254 177.965 C 198.892 179.206,194.347 181.199,193.855 181.209 C 193.605 181.214,192.950 181.570,192.400 182.000 C 191.850 182.430,191.133 182.786,190.806 182.791 C 190.479 182.796,189.219 183.269,188.006 183.842 C 182.514 186.435,181.703 186.800,181.435 186.800 C 181.279 186.800,180.127 187.260,178.875 187.821 C 177.624 188.383,175.880 189.166,175.000 189.561 C 174.120 189.955,172.410 190.748,171.200 191.322 C 169.990 191.896,168.550 192.485,168.000 192.630 C 167.450 192.776,166.730 193.122,166.400 193.400 C 166.070 193.678,165.350 194.025,164.800 194.171 C 164.250 194.318,162.720 194.911,161.400 195.489 C 155.678 197.997,154.520 198.523,153.146 199.241 C 152.346 199.658,151.464 200.000,151.186 200.000 C 150.907 200.000,149.762 200.434,148.640 200.965 C 145.864 202.279,141.764 204.000,141.412 204.000 C 141.253 204.000,140.646 204.334,140.062 204.742 C 139.478 205.150,138.505 205.603,137.900 205.749 L 136.800 206.015 136.800 153.965 C 136.800 104.554,136.835 101.928,137.500 102.192 C 137.885 102.344,139.142 102.825,140.292 103.260 M74.709 323.629 C 68.628 324.617,63.984 333.783,66.559 339.713 C 67.504 341.889,73.255 347.200,74.666 347.200 C 74.946 347.200,75.868 347.561,76.714 348.002 C 78.245 348.800,78.832 348.803,215.689 348.702 L 353.126 348.600 354.663 347.365 C 356.688 345.737,357.754 343.513,357.410 341.631 C 357.267 340.844,357.026 337.042,356.875 333.182 C 356.573 325.463,356.187 324.164,354.082 323.770 C 352.571 323.487,76.439 323.348,74.709 323.629 " stroke="none" fill="#558d8c" fill-rule="evenodd"></path><path id="path3" d="M15.000 0.877 C 13.484 1.675,8.731 5.123,7.000 6.680 C 5.779 7.779,3.106 11.143,1.469 13.641 L 0.000 15.883 -0.000 188.370 L -0.000 360.858 1.076 362.729 C 2.268 364.801,5.531 369.355,6.716 370.600 C 7.135 371.040,8.476 372.672,9.697 374.226 C 12.388 377.654,16.822 381.787,19.000 382.899 C 19.880 383.349,21.465 384.545,22.523 385.558 C 24.411 387.367,25.000 387.773,27.400 388.922 C 29.954 390.146,32.459 391.623,33.289 392.397 C 33.767 392.842,36.011 394.120,38.276 395.238 C 40.542 396.355,42.486 397.416,42.597 397.595 C 42.707 397.773,43.743 398.138,44.899 398.405 C 46.054 398.672,47.399 399.140,47.886 399.445 C 48.638 399.916,75.308 400.000,224.386 400.000 L 400.000 400.000 400.000 226.374 L 400.000 52.748 390.241 52.874 C 379.383 53.014,379.791 52.912,377.887 55.974 L 377.000 57.400 376.897 215.303 L 376.794 373.205 224.297 373.103 L 71.800 373.000 70.215 372.100 C 69.300 371.580,67.949 371.198,67.015 371.196 C 66.115 371.194,64.515 370.757,63.400 370.209 C 62.300 369.668,61.193 369.219,60.940 369.213 C 60.339 369.196,57.031 367.653,55.000 366.442 C 43.606 359.648,38.626 355.487,35.077 349.800 C 34.391 348.700,33.707 347.710,33.556 347.600 C 33.406 347.490,33.073 346.590,32.817 345.600 C 32.561 344.610,32.047 342.990,31.676 342.000 C 30.750 339.535,30.771 332.946,31.713 330.200 C 32.090 329.100,32.586 327.435,32.815 326.500 C 33.044 325.565,33.390 324.800,33.584 324.800 C 33.778 324.800,34.062 324.230,34.214 323.534 C 34.367 322.838,34.922 321.461,35.446 320.475 C 35.971 319.488,36.400 318.411,36.400 318.082 C 36.400 316.114,43.067 309.246,48.219 305.908 C 49.330 305.189,51.040 303.944,52.019 303.142 C 52.999 302.340,54.430 301.398,55.200 301.050 C 55.970 300.701,56.870 300.251,57.200 300.048 C 57.530 299.846,58.762 299.213,59.937 298.640 L 62.074 297.600 200.137 297.597 C 276.072 297.596,339.413 297.480,340.895 297.340 C 344.055 297.041,346.375 295.421,347.646 292.622 C 348.357 291.056,348.383 285.982,348.391 145.500 L 348.400 0.000 182.500 0.018 L 16.600 0.035 15.000 0.877 M140.292 103.260 C 141.443 103.696,142.489 104.220,142.616 104.426 C 142.743 104.632,143.129 104.800,143.472 104.800 C 143.816 104.800,145.920 105.691,148.149 106.779 C 150.377 107.868,152.740 108.882,153.400 109.033 C 154.060 109.184,154.870 109.537,155.200 109.817 C 155.530 110.096,156.544 110.524,157.453 110.766 C 158.363 111.008,159.320 111.463,159.581 111.777 C 159.842 112.091,160.628 112.471,161.328 112.620 C 162.649 112.901,165.527 114.117,172.400 117.296 C 173.610 117.856,175.680 118.795,177.000 119.383 C 178.320 119.970,180.030 120.777,180.800 121.175 C 181.570 121.574,182.830 122.035,183.600 122.200 C 184.370 122.365,185.478 122.837,186.062 123.250 C 186.646 123.662,187.366 124.002,187.662 124.004 C 187.958 124.006,189.100 124.450,190.200 124.991 C 191.300 125.532,192.433 125.981,192.718 125.987 C 193.003 125.994,194.082 126.450,195.115 127.000 C 196.148 127.550,197.229 128.000,197.518 128.000 C 197.806 128.000,198.707 128.346,199.521 128.769 C 202.837 130.494,205.181 131.532,206.330 131.785 C 206.998 131.931,207.750 132.298,208.000 132.600 C 208.250 132.902,209.028 133.272,209.728 133.423 C 210.427 133.575,211.809 134.126,212.797 134.649 C 213.785 135.172,214.757 135.600,214.957 135.600 C 215.343 135.600,218.864 137.165,221.200 138.375 C 221.970 138.773,223.173 139.224,223.872 139.376 C 224.572 139.527,225.350 139.898,225.600 140.200 C 225.850 140.502,226.628 140.870,227.328 141.018 C 228.027 141.166,229.230 141.610,230.000 142.005 C 232.794 143.439,236.760 145.200,237.196 145.200 C 237.627 145.200,238.202 145.465,242.700 147.739 C 243.855 148.322,244.992 148.800,245.225 148.800 C 245.816 148.800,250.761 151.174,252.117 152.108 C 253.345 152.955,253.105 153.736,251.464 154.228 C 250.595 154.488,238.720 160.146,237.600 160.834 C 237.270 161.036,236.550 161.389,236.000 161.617 C 234.734 162.143,230.792 164.019,230.000 164.473 C 229.670 164.662,228.770 165.087,228.000 165.418 C 227.230 165.749,226.330 166.199,226.000 166.418 C 225.670 166.637,224.770 167.093,224.000 167.432 C 223.230 167.771,221.160 168.732,219.400 169.568 C 212.666 172.765,210.842 173.600,210.587 173.600 C 210.442 173.600,209.846 173.934,209.262 174.342 C 208.678 174.750,207.674 175.211,207.032 175.366 C 206.389 175.522,205.420 175.998,204.878 176.425 C 204.336 176.851,203.626 177.200,203.301 177.200 C 202.975 177.200,202.054 177.544,201.254 177.965 C 198.892 179.206,194.347 181.199,193.855 181.209 C 193.605 181.214,192.950 181.570,192.400 182.000 C 191.850 182.430,191.133 182.786,190.806 182.791 C 190.479 182.796,189.219 183.269,188.006 183.842 C 182.514 186.435,181.703 186.800,181.435 186.800 C 181.279 186.800,180.127 187.260,178.875 187.821 C 177.624 188.383,175.880 189.166,175.000 189.561 C 174.120 189.955,172.410 190.748,171.200 191.322 C 169.990 191.896,168.550 192.485,168.000 192.630 C 167.450 192.776,166.730 193.122,166.400 193.400 C 166.070 193.678,165.350 194.025,164.800 194.171 C 164.250 194.318,162.720 194.911,161.400 195.489 C 155.678 197.997,154.520 198.523,153.146 199.241 C 152.346 199.658,151.464 200.000,151.186 200.000 C 150.907 200.000,149.762 200.434,148.640 200.965 C 145.864 202.279,141.764 204.000,141.412 204.000 C 141.253 204.000,140.646 204.334,140.062 204.742 C 139.478 205.150,138.505 205.603,137.900 205.749 L 136.800 206.015 136.800 153.965 C 136.800 104.554,136.835 101.928,137.500 102.192 C 137.885 102.344,139.142 102.825,140.292 103.260 M74.709 323.629 C 68.628 324.617,63.984 333.783,66.559 339.713 C 67.504 341.889,73.255 347.200,74.666 347.200 C 74.946 347.200,75.868 347.561,76.714 348.002 C 78.245 348.800,78.832 348.803,215.689 348.702 L 353.126 348.600 354.663 347.365 C 356.688 345.737,357.754 343.513,357.410 341.631 C 357.267 340.844,357.026 337.042,356.875 333.182 C 356.573 325.463,356.187 324.164,354.082 323.770 C 352.571 323.487,76.439 323.348,74.709 323.629 " stroke="none" fill="#558d8c" fill-rule="evenodd"></path><path id="path4" d="M15.000 0.877 C 13.484 1.675,8.731 5.123,7.000 6.680 C 5.779 7.779,3.106 11.143,1.469 13.641 L 0.000 15.883 -0.000 188.370 L -0.000 360.858 1.076 362.729 C 2.268 364.801,5.531 369.355,6.716 370.600 C 7.135 371.040,8.476 372.672,9.697 374.226 C 12.388 377.654,16.822 381.787,19.000 382.899 C 19.880 383.349,21.465 384.545,22.523 385.558 C 24.411 387.367,25.000 387.773,27.400 388.922 C 29.954 390.146,32.459 391.623,33.289 392.397 C 33.767 392.842,36.011 394.120,38.276 395.238 C 40.542 396.355,42.486 397.416,42.597 397.595 C 42.707 397.773,43.743 398.138,44.899 398.405 C 46.054 398.672,47.399 399.140,47.886 399.445 C 48.638 399.916,75.308 400.000,224.386 400.000 L 400.000 400.000 400.000 226.374 L 400.000 52.748 390.241 52.874 C 379.383 53.014,379.791 52.912,377.887 55.974 L 377.000 57.400 376.897 215.303 L 376.794 373.205 224.297 373.103 L 71.800 373.000 70.215 372.100 C 69.300 371.580,67.949 371.198,67.015 371.196 C 66.115 371.194,64.515 370.757,63.400 370.209 C 62.300 369.668,61.193 369.219,60.940 369.213 C 60.339 369.196,57.031 367.653,55.000 366.442 C 43.606 359.648,38.626 355.487,35.077 349.800 C 34.391 348.700,33.707 347.710,33.556 347.600 C 33.406 347.490,33.073 346.590,32.817 345.600 C 32.561 344.610,32.047 342.990,31.676 342.000 C 30.750 339.535,30.771 332.946,31.713 330.200 C 32.090 329.100,32.586 327.435,32.815 326.500 C 33.044 325.565,33.390 324.800,33.584 324.800 C 33.778 324.800,34.062 324.230,34.214 323.534 C 34.367 322.838,34.922 321.461,35.446 320.475 C 35.971 319.488,36.400 318.411,36.400 318.082 C 36.400 316.114,43.067 309.246,48.219 305.908 C 49.330 305.189,51.040 303.944,52.019 303.142 C 52.999 302.340,54.430 301.398,55.200 301.050 C 55.970 300.701,56.870 300.251,57.200 300.048 C 57.530 299.846,58.762 299.213,59.937 298.640 L 62.074 297.600 200.137 297.597 C 276.072 297.596,339.413 297.480,340.895 297.340 C 344.055 297.041,346.375 295.421,347.646 292.622 C 348.357 291.056,348.383 285.982,348.391 145.500 L 348.400 0.000 182.500 0.018 L 16.600 0.035 15.000 0.877 M140.292 103.260 C 141.443 103.696,142.489 104.220,142.616 104.426 C 142.743 104.632,143.129 104.800,143.472 104.800 C 143.816 104.800,145.920 105.691,148.149 106.779 C 150.377 107.868,152.740 108.882,153.400 109.033 C 154.060 109.184,154.870 109.537,155.200 109.817 C 155.530 110.096,156.544 110.524,157.453 110.766 C 158.363 111.008,159.320 111.463,159.581 111.777 C 159.842 112.091,160.628 112.471,161.328 112.620 C 162.649 112.901,165.527 114.117,172.400 117.296 C 173.610 117.856,175.680 118.795,177.000 119.383 C 178.320 119.970,180.030 120.777,180.800 121.175 C 181.570 121.574,182.830 122.035,183.600 122.200 C 184.370 122.365,185.478 122.837,186.062 123.250 C 186.646 123.662,187.366 124.002,187.662 124.004 C 187.958 124.006,189.100 124.450,190.200 124.991 C 191.300 125.532,192.433 125.981,192.718 125.987 C 193.003 125.994,194.082 126.450,195.115 127.000 C 196.148 127.550,197.229 128.000,197.518 128.000 C 197.806 128.000,198.707 128.346,199.521 128.769 C 202.837 130.494,205.181 131.532,206.330 131.785 C 206.998 131.931,207.750 132.298,208.000 132.600 C 208.250 132.902,209.028 133.272,209.728 133.423 C 210.427 133.575,211.809 134.126,212.797 134.649 C 213.785 135.172,214.757 135.600,214.957 135.600 C 215.343 135.600,218.864 137.165,221.200 138.375 C 221.970 138.773,223.173 139.224,223.872 139.376 C 224.572 139.527,225.350 139.898,225.600 140.200 C 225.850 140.502,226.628 140.870,227.328 141.018 C 228.027 141.166,229.230 141.610,230.000 142.005 C 232.794 143.439,236.760 145.200,237.196 145.200 C 237.627 145.200,238.202 145.465,242.700 147.739 C 243.855 148.322,244.992 148.800,245.225 148.800 C 245.816 148.800,250.761 151.174,252.117 152.108 C 253.345 152.955,253.105 153.736,251.464 154.228 C 250.595 154.488,238.720 160.146,237.600 160.834 C 237.270 161.036,236.550 161.389,236.000 161.617 C 234.734 162.143,230.792 164.019,230.000 164.473 C 229.670 164.662,228.770 165.087,228.000 165.418 C 227.230 165.749,226.330 166.199,226.000 166.418 C 225.670 166.637,224.770 167.093,224.000 167.432 C 223.230 167.771,221.160 168.732,219.400 169.568 C 212.666 172.765,210.842 173.600,210.587 173.600 C 210.442 173.600,209.846 173.934,209.262 174.342 C 208.678 174.750,207.674 175.211,207.032 175.366 C 206.389 175.522,205.420 175.998,204.878 176.425 C 204.336 176.851,203.626 177.200,203.301 177.200 C 202.975 177.200,202.054 177.544,201.254 177.965 C 198.892 179.206,194.347 181.199,193.855 181.209 C 193.605 181.214,192.950 181.570,192.400 182.000 C 191.850 182.430,191.133 182.786,190.806 182.791 C 190.479 182.796,189.219 183.269,188.006 183.842 C 182.514 186.435,181.703 186.800,181.435 186.800 C 181.279 186.800,180.127 187.260,178.875 187.821 C 177.624 188.383,175.880 189.166,175.000 189.561 C 174.120 189.955,172.410 190.748,171.200 191.322 C 169.990 191.896,168.550 192.485,168.000 192.630 C 167.450 192.776,166.730 193.122,166.400 193.400 C 166.070 193.678,165.350 194.025,164.800 194.171 C 164.250 194.318,162.720 194.911,161.400 195.489 C 155.678 197.997,154.520 198.523,153.146 199.241 C 152.346 199.658,151.464 200.000,151.186 200.000 C 150.907 200.000,149.762 200.434,148.640 200.965 C 145.864 202.279,141.764 204.000,141.412 204.000 C 141.253 204.000,140.646 204.334,140.062 204.742 C 139.478 205.150,138.505 205.603,137.900 205.749 L 136.800 206.015 136.800 153.965 C 136.800 104.554,136.835 101.928,137.500 102.192 C 137.885 102.344,139.142 102.825,140.292 103.260 M74.709 323.629 C 68.628 324.617,63.984 333.783,66.559 339.713 C 67.504 341.889,73.255 347.200,74.666 347.200 C 74.946 347.200,75.868 347.561,76.714 348.002 C 78.245 348.800,78.832 348.803,215.689 348.702 L 353.126 348.600 354.663 347.365 C 356.688 345.737,357.754 343.513,357.410 341.631 C 357.267 340.844,357.026 337.042,356.875 333.182 C 356.573 325.463,356.187 324.164,354.082 323.770 C 352.571 323.487,76.439 323.348,74.709 323.629 " stroke="none" fill="#558d8c" fill-rule="evenodd"></path></g></svg>